<?xml version="1.0" encoding="UTF-8" standalone="no"?>
<svg width="30px" height="44px" viewBox="0 0 30 44" version="1.1" xmlns="http://www.w3.org/2000/svg" xmlns:xlink="http://www.w3.org/1999/xlink">
    <g id="Page-1" stroke="none" stroke-width="1" fill="none" fill-rule="evenodd">
        <g id="camera" fill="#000000">
            <g id="1472169347_icon-camera" transform="translate(4.000000, 12.000000)">
                <g id="Group">
                    <path d="M21.1423077,2.709375 L17.4103365,2.709375 L15.1766827,0.541875 C15.1766827,0.541875 15.165625,0.53125 15.1600962,0.53125 L15.1490385,0.520625 L15.1490385,0.520625 C14.8173077,0.201875 14.3694712,0 13.8608173,0 L9.21658654,0 C8.67475962,0 8.19375,0.223125 7.85649038,0.5790625 L7.85649038,0.584375 L5.67259615,2.709375 L1.85769231,2.709375 C0.829326923,2.709375 0,3.485 0,4.473125 L0,15.2096875 C0,16.1978125 0.829326923,17 1.85769231,17 L21.1423077,17 C22.1651442,17 23,16.1978125 23,15.2096875 L23,4.473125 C23,3.485 22.1651442,2.709375 21.1423077,2.709375 L21.1423077,2.709375 Z M11.5,14.3171875 C8.68581731,14.3171875 6.39134615,12.1071875 6.39134615,9.3978125 C6.39134615,6.683125 8.68581731,4.4784375 11.5,4.4784375 C14.3197115,4.4784375 16.6086538,6.683125 16.6086538,9.3978125 C16.6086538,12.1071875 14.3197115,14.3171875 11.5,14.3171875 L11.5,14.3171875 Z M20.7939904,5.5515625 C20.3682692,5.5515625 20.0199519,5.216875 20.0199519,4.8025 C20.0199519,4.388125 20.3682692,4.0534375 20.7939904,4.0534375 C21.2197115,4.0534375 21.5680288,4.388125 21.5680288,4.8025 C21.5680288,5.216875 21.2197115,5.5515625 20.7939904,5.5515625 L20.7939904,5.5515625 Z" id="Shape"></path>
                    <path d="M11.5,5.6790625 C9.36586538,5.6790625 7.64086538,7.341875 7.64086538,9.3978125 C7.64086538,11.4484375 9.36586538,13.1165625 11.5,13.1165625 C13.6286058,13.1165625 15.3591346,11.45375 15.3591346,9.3978125 C15.3591346,7.341875 13.6286058,5.6790625 11.5,5.6790625 L11.5,5.6790625 Z" id="Shape"></path>
                </g>
            </g>
        </g>
    </g>
</svg>
