<?xml version="1.0" encoding="UTF-8" standalone="no"?>
<svg width="22px" height="14px" viewBox="0 0 22 14" version="1.1" xmlns="http://www.w3.org/2000/svg" xmlns:xlink="http://www.w3.org/1999/xlink">
    <g id="Page-1" stroke="none" stroke-width="1" fill="none" fill-rule="evenodd">
        <g id="1471482309_message" fill="#666666">
            <g>
                <path d="M21.1053333,0.0157554859 L0.902927711,0.0157554859 L0.727722892,0.0157554859 L0.302522088,0.0157554859 L0.00963052209,0.0157554859 L0.00963052209,13.9975423 L22,13.9975423 L22,0.0157554859 L21.2393655,0.0157554859 L21.1053333,0.0157554859 L21.1053333,0.0157554859 L21.1053333,0.0157554859 Z M20.2257309,0.889636364 L11.7301968,9.32944201 C11.3428112,9.7142884 10.6667309,9.7142884 10.2793454,9.32944201 L1.78253012,0.889636364 L20.2257309,0.889636364 L20.2257309,0.889636364 L20.2257309,0.889636364 Z M0.889188755,1.23774922 L6.60066265,6.91095298 L0.889188755,12.5850345 L0.889188755,1.23774922 L0.889188755,1.23774922 L0.889188755,1.23774922 Z M1.59097992,13.1235298 L7.2230241,7.52923511 L9.6574257,9.94728527 C10.0169357,10.3048777 10.4958112,10.5020188 11.0047711,10.5020188 C11.5137309,10.5020188 11.9926064,10.3048777 12.3521165,9.94728527 L14.7865181,7.52884013 L20.4181205,13.1235298 L1.59097992,13.1235298 L1.59097992,13.1235298 L1.59097992,13.1235298 Z M21.1203976,12.5854734 L15.4088795,6.91099687 L21.1203534,1.23652038 L21.1203534,12.5854734 L21.1203976,12.5854734 L21.1203976,12.5854734 Z" id="Shape"></path>
            </g>
        </g>
    </g>
</svg>
