<?xml version="1.0" encoding="UTF-8" standalone="no"?>
<svg width="2071px" height="719px" viewBox="0 0 2071 719" version="1.1" xmlns="http://www.w3.org/2000/svg" xmlns:xlink="http://www.w3.org/1999/xlink">
    <g id="model-2" stroke="none" stroke-width="1" fill="none" fill-rule="evenodd">
        <g id="Artboard" transform="translate(-69.000000, -614.000000)" fill="#FFFFFF">
            <g id="The-MiG" transform="translate(69.000000, 614.000000)">
                <path d="M1133.25955,658.723738 C1133.24352,658.593637 1133.22973,658.462755 1133.21821,658.331127 L1127.61465,594.282031 C1127.0851,588.229322 1131.56681,582.901146 1137.62394,582.371216 L1202.63267,576.683689 C1208.69224,576.153545 1214.02904,580.627225 1214.55819,586.675457 L1220.16176,650.724552 C1220.1743,650.867905 1220.18403,651.010852 1220.191,651.153338 C1220.21918,651.419807 1220.245,651.687073 1220.26845,651.955118 C1222.36971,675.972577 1204.16253,692.029193 1180.15373,694.12969 C1156.14494,696.230188 1135.42616,683.579152 1133.32491,659.561693 C1133.30044,659.28198 1133.27866,659.002654 1133.25955,658.723738 Z M936.713676,658.723738 C936.729704,658.593637 936.743497,658.462755 936.755013,658.331127 L942.358582,594.282031 C942.888126,588.229322 938.40642,582.901146 932.349288,582.371216 L867.340558,576.683689 C861.280987,576.153545 855.944187,580.627225 855.415036,586.675457 L849.811466,650.724552 C849.798924,650.867905 849.789193,651.010852 849.782228,651.153338 C849.75405,651.419807 849.728225,651.687073 849.704774,651.955118 C847.603518,675.972577 865.810697,692.029193 889.819495,694.12969 C913.828292,696.230188 934.547065,683.579152 936.648321,659.561693 C936.672792,659.28198 936.69457,659.002654 936.713676,658.723738 Z M1032.59896,319.35674 C1022.02865,322.122257 997.150813,329.836972 985.178334,343.959038 C973.205855,358.081104 967.530339,362.668969 958.279719,405.547294 C949.029098,448.425619 949.218234,451.47424 949.218234,451.47424 C949.218234,451.47424 934.859508,467.484079 926.486309,467.484085 C918.113111,467.484091 896.161907,464.233454 886.089325,464.233463 C876.016743,464.233473 822.178272,476.711008 797.89486,483.913595 C773.611447,491.116182 746.914767,504.60519 739.444589,510.188861 C737.219036,498.439684 724.275277,380.714536 724.275277,380.714536 L682.571403,19.8357801 C682.571403,19.8357801 677.353797,0.223933064 673.02499,0.223933064 C668.696183,0.223933064 664.557934,6.87454816 664.557934,11.3116116 C664.557934,15.748675 664.651792,33.4599394 664.651792,33.4599394 L676.436556,167.869234 L697.308403,408.810719 C697.308403,408.810719 700.624692,500.680246 700.62469,508.542922 C700.624687,516.405598 692.992394,521.262292 686.76369,521.262313 C680.534987,521.262334 14.9396714,583.820776 14.9396714,583.820776 C14.9396714,583.820776 0.121613339,583.307214 0.121613339,593.720591 C0.121613339,604.133968 6.04172666,605.657546 15.6819964,605.657557 C25.3222662,605.657567 318.005934,591.090219 318.005934,591.090219 C318.005934,591.090219 684.159853,573.919569 699.194079,572.395944 C714.228305,570.872319 729.195669,571.141218 729.195669,571.141218 C729.195669,571.141218 731.350127,579.222977 735.397353,584.091069 C739.44458,588.959161 760.531147,606.856778 804.109343,604.875131 C806.8326,618.445257 814.828971,638.677329 814.828971,638.677329 L822.028954,667.893092 C822.028954,667.893092 828.944504,702.854708 852.339136,711.8782 C875.733768,720.901692 904.034518,718.29836 913.216895,718.298355 C922.399272,718.298351 941.708219,708.748508 955.299042,686.641426 C968.889865,664.534344 975.821044,631.527376 980.499695,628.736259 C985.178347,625.945143 987.078208,620.185042 991.042986,620.185062 C995.007763,620.185081 1000.94067,622.641891 1007.61447,625.689068 C1014.28826,628.736246 1026.75992,628.736231 1034.52735,628.736246 C1043.60661,628.512298 1056.50549,628.512313 1063.17929,625.465135 C1069.85308,622.417958 1075.78599,619.961148 1079.75077,619.961129 C1083.71555,619.961109 1085.61541,625.72121 1090.29406,628.512326 C1094.97271,631.303443 1101.90389,664.310411 1115.49471,686.417493 C1129.08554,708.524575 1148.39448,718.074418 1157.57686,718.074422 C1166.75924,718.074427 1195.05999,720.677759 1218.45462,711.654267 C1241.84925,702.630775 1248.7648,667.669159 1248.7648,667.669159 L1255.96478,638.453396 C1255.96478,638.453396 1263.96116,618.221324 1266.68441,604.651198 C1310.26261,606.632845 1331.34917,588.735228 1335.3964,583.867136 C1339.44363,578.999044 1341.59809,570.917285 1341.59809,570.917285 C1341.59809,570.917285 1356.56545,570.648385 1371.59968,572.172011 C1386.6339,573.695636 1752.78782,590.866286 1752.78782,590.866286 C1752.78782,590.866286 2045.47149,605.433634 2055.11176,605.433624 C2064.75203,605.433613 2070.67214,603.910035 2070.67214,593.496658 C2070.67214,583.083281 2055.85408,583.596843 2055.85408,583.596843 C2055.85408,583.596843 1390.25877,521.038401 1384.03006,521.03838 C1377.80136,521.038359 1370.16907,516.181665 1370.16907,508.318989 C1370.16906,500.456313 1373.48535,408.586786 1373.48535,408.586786 L1394.3572,167.645301 L1406.14196,33.2360063 C1406.14196,33.2360063 1406.23582,15.5247419 1406.23582,11.0876785 C1406.23582,6.65061509 1402.09757,0 1397.76877,0 C1393.43996,0 1388.22235,19.6118471 1388.22235,19.6118471 L1346.51848,380.490603 C1346.51848,380.490603 1333.57472,498.215751 1331.34917,509.964927 C1323.87899,504.381257 1297.18231,490.892248 1272.8989,483.689662 C1248.61548,476.487075 1194.77701,464.009539 1184.70443,464.00953 C1174.63185,464.009521 1152.68064,467.260158 1144.30745,467.260152 C1135.93425,467.260146 1121.57552,451.250307 1121.57552,451.250307 C1121.57552,451.250307 1121.76466,448.201686 1112.51404,405.323361 C1103.26342,362.445036 1097.5879,357.857171 1085.61542,343.735105 C1073.64294,329.613039 1048.7651,321.898324 1038.19479,319.132807 C1038.19479,311.187633 1035.57104,305.300347 1035.57104,305.300347 C1034.41536,306.802381 1032.59896,311.411566 1032.59896,319.35674 Z M1036.69653,408.460199 C1070.43724,408.460199 1095.56619,427.662168 1095.56619,393.909286 C1095.56619,360.156403 1068.21394,332.794286 1034.47323,332.794286 C1000.73252,332.794286 972.353495,360.156403 972.353495,393.909286 C972.353495,427.662168 1002.95582,408.460199 1036.69653,408.460199 Z M1037.55354,616.285714 C1081.50153,616.285714 1117.12841,580.645981 1117.12841,536.682143 C1117.12841,492.718304 1081.50153,457.078571 1037.55354,457.078571 C993.605561,457.078571 957.978681,492.718304 957.978681,536.682143 C957.978681,580.645981 993.605561,616.285714 1037.55354,616.285714 Z M1028.8376,558.57701 C1028.5313,555.277576 1030.96525,552.602857 1034.28713,552.602857 L1036.10525,552.602857 C1039.42125,552.602857 1041.86156,555.272482 1041.55479,558.57701 L1039.89872,576.415848 C1039.59242,579.715281 1036.65887,582.39 1034.98661,582.39 C1032.81153,582.39 1030.80044,579.720376 1030.49366,576.415848 L1028.8376,558.57701 Z" id="Combined-Shape"></path>
            </g>
        </g>
    </g>
</svg>
