<?xml version="1.0" encoding="UTF-8" standalone="no"?>
<svg width="1241px" height="201px" viewBox="0 0 1241 201" version="1.1" xmlns="http://www.w3.org/2000/svg" xmlns:xlink="http://www.w3.org/1999/xlink">
    <g id="model-2" stroke="none" stroke-width="1" fill="none" fill-rule="evenodd">
        <g id="Artboard" transform="translate(-484.000000, -1574.000000)" fill="#FFFFFF">
            <path d="M706.149058,1772.31802 L642.873556,1772.31802 C640.682185,1772.31802 639.586516,1771.22236 639.586516,1769.03099 L639.586516,1755.06107 C639.586516,1752.8697 640.682185,1751.77403 642.873556,1751.77403 L661.22619,1751.77403 L661.22619,1615.36191 L660.952271,1615.36191 L608.907485,1744.65211 C606.716115,1750.13054 602.698663,1752.86971 596.855008,1752.86971 C591.011354,1752.86971 586.993902,1750.13054 584.802532,1744.65211 L532.757746,1615.36191 L532.209907,1615.36191 L532.209907,1751.77403 L550.562541,1751.77403 C552.936526,1751.77403 554.1235,1752.8697 554.1235,1755.06107 L554.1235,1769.03099 C554.1235,1771.22236 552.936526,1772.31802 550.562541,1772.31802 L487.560959,1772.31802 C485.186974,1772.31802 484,1771.22236 484,1769.03099 L484,1755.06107 C484,1752.8697 485.186974,1751.77403 487.560959,1751.77403 L508.378873,1751.77403 L508.378873,1596.18751 L487.560959,1596.18751 C485.186974,1596.18751 484,1595.09185 484,1592.90047 L484,1578.93056 C484,1576.73919 485.186974,1575.64352 487.560959,1575.64352 L529.744627,1575.64352 C535.95351,1575.64352 540.244879,1578.74791 542.618864,1584.9568 L583.432932,1683.56797 L596.307169,1718.08188 L597.402848,1718.08188 C602.516046,1703.83797 606.716109,1692.51606 610.003165,1684.11581 L651.091153,1584.9568 C653.465138,1578.74791 657.847813,1575.64352 664.23931,1575.64352 L706.149058,1575.64352 C708.340428,1575.64352 709.436097,1576.73919 709.436097,1578.93056 L709.436097,1592.90047 C709.436097,1595.09185 708.340428,1596.18751 706.149058,1596.18751 L685.057224,1596.18751 L685.057224,1751.77403 L706.149058,1751.77403 C708.340428,1751.77403 709.436097,1752.8697 709.436097,1755.06107 L709.436097,1769.03099 C709.436097,1771.22236 708.340428,1772.31802 706.149058,1772.31802 L706.149058,1772.31802 Z M907.721328,1746.15867 C889.73383,1764.87663 867.090009,1774.23546 839.789187,1774.23546 C812.488365,1774.23546 789.707586,1764.78532 771.446166,1745.88475 C753.184747,1726.98418 744.054174,1702.60555 744.054174,1672.74813 C744.054174,1642.89071 753.458664,1618.96861 772.267926,1600.98111 C791.077188,1582.99361 813.538397,1574 839.652227,1574 C865.766057,1574 888.135961,1582.99361 906.762609,1600.98111 C925.389256,1618.96861 934.702441,1642.98202 934.702441,1673.02205 C934.702441,1703.06209 925.708827,1727.44072 907.721328,1746.15867 L907.721328,1746.15867 Z M839.652227,1752.04795 C858.278875,1752.04795 874.531295,1745.06306 888.409974,1731.09308 C902.288653,1717.12309 909.227888,1697.94889 909.227888,1673.56989 C909.227888,1649.1909 902.151694,1630.108 887.999094,1616.32063 C873.846494,1602.53326 857.731033,1595.63967 839.652227,1595.63967 C821.573422,1595.63967 805.412308,1602.53326 791.168401,1616.32063 C776.924494,1630.108 769.802647,1649.1909 769.802647,1673.56989 C769.802647,1697.94889 776.787535,1717.12309 790.757521,1731.09308 C804.727507,1745.06306 821.025579,1752.04795 839.652227,1752.04795 L839.652227,1752.04795 Z M1048.22103,1772.31802 L969.606012,1772.31802 C967.414641,1772.31802 966.318973,1771.22236 966.318973,1769.03099 L966.318973,1755.06107 C966.318973,1752.8697 967.414641,1751.77403 969.606012,1751.77403 L990.697846,1751.77403 L990.697846,1596.18751 L969.606012,1596.18751 C967.414641,1596.18751 966.318973,1595.09185 966.318973,1592.90047 L966.318973,1578.93056 C966.318973,1576.73919 967.414641,1575.64352 969.606012,1575.64352 L1043.56439,1575.64352 C1073.87835,1575.64352 1097.98306,1584.36322 1115.87925,1601.80287 C1133.77544,1619.24253 1142.7234,1643.21028 1142.7234,1673.70685 C1142.7234,1704.20342 1134.23197,1728.26248 1117.24885,1745.88475 C1100.26573,1763.50702 1077.25669,1772.31802 1048.22103,1772.31802 L1048.22103,1772.31802 Z M1014.52888,1751.77403 L1041.64695,1751.77403 C1092.4137,1751.4088 1117.79669,1725.56928 1117.79669,1674.25469 C1117.79669,1649.60178 1111.26833,1630.42757 1098.21142,1616.73151 C1085.1545,1603.03544 1066.02595,1596.18751 1040.82519,1596.18751 L1014.52888,1596.18751 L1014.52888,1751.77403 Z M1326.62784,1772.31802 L1181.17636,1772.31802 C1178.80237,1772.31802 1177.6154,1771.22236 1177.6154,1769.03099 L1177.6154,1755.06107 C1177.6154,1752.8697 1178.80237,1751.77403 1181.17636,1751.77403 L1201.99427,1751.77403 L1201.99427,1596.18751 L1181.17636,1596.18751 C1178.80237,1596.18751 1177.6154,1595.09185 1177.6154,1592.90047 L1177.6154,1578.93056 C1177.6154,1576.73919 1178.80237,1575.64352 1181.17636,1575.64352 L1326.62784,1575.64352 C1329.00182,1575.64352 1330.1888,1576.73919 1330.1888,1578.93056 L1330.1888,1623.03167 C1330.1888,1625.40565 1329.00182,1626.59263 1326.62784,1626.59263 L1311.83616,1626.59263 C1309.64479,1626.59263 1308.54912,1625.40565 1308.54912,1623.03167 L1308.54912,1596.18751 L1225.82531,1596.18751 L1225.82531,1664.11965 L1295.12705,1664.11965 C1297.50103,1664.11965 1298.68801,1665.21532 1298.68801,1667.40669 L1298.68801,1681.37661 C1298.68801,1683.56798 1297.50103,1684.66365 1295.12705,1684.66365 L1225.82531,1684.66365 L1225.82531,1751.77403 L1308.2752,1751.77403 L1308.2752,1724.92988 C1308.2752,1722.73851 1309.46218,1721.64284 1311.83616,1721.64284 L1326.62784,1721.64284 C1329.00182,1721.64284 1330.1888,1722.73851 1330.1888,1724.92988 L1330.1888,1769.03099 C1330.1888,1771.22236 1329.00182,1772.31802 1326.62784,1772.31802 L1326.62784,1772.31802 Z M1517.59632,1772.31802 L1367.76212,1772.31802 C1365.38814,1772.31802 1364.20116,1771.22236 1364.20116,1769.03099 L1364.20116,1755.06107 C1364.20116,1752.8697 1365.38814,1751.77403 1367.76212,1751.77403 L1388.58004,1751.77403 L1388.58004,1596.18751 L1367.76212,1596.18751 C1365.38814,1596.18751 1364.20116,1595.09185 1364.20116,1592.90047 L1364.20116,1578.93056 C1364.20116,1576.73919 1365.38814,1575.64352 1367.76212,1575.64352 L1433.22899,1575.64352 C1435.60297,1575.64352 1436.78994,1576.83049 1436.78994,1579.20448 L1436.78994,1592.62655 C1436.78994,1595.00054 1435.60297,1596.18751 1433.22899,1596.18751 L1412.41107,1596.18751 L1412.41107,1751.77403 L1499.51761,1751.77403 L1499.51761,1724.92988 C1499.51761,1722.73851 1500.70458,1721.64284 1503.07857,1721.64284 L1517.87024,1721.64284 C1520.06161,1721.64284 1521.15728,1722.73851 1521.15728,1724.92988 L1521.15728,1768.75707 C1521.15728,1771.13105 1519.97031,1772.31802 1517.59632,1772.31802 L1517.59632,1772.31802 Z M1721.71296,1772.31802 L1697.88193,1772.31802 C1691.30782,1772.31802 1685.82947,1767.93535 1681.44673,1759.16987 L1655.69826,1706.85116 C1653.50689,1702.28581 1651.17859,1698.9075 1648.7133,1696.71613 C1646.24801,1694.52476 1642.82404,1693.33778 1638.4413,1693.15517 L1603.65347,1693.15517 L1603.65347,1751.77403 L1628.30627,1751.77403 C1630.49764,1751.77403 1631.59331,1752.8697 1631.59331,1755.06107 L1631.59331,1769.03099 C1631.59331,1771.22236 1630.49764,1772.31802 1628.30627,1772.31802 L1559.00453,1772.31802 C1556.63054,1772.31802 1555.44357,1771.22236 1555.44357,1769.03099 L1555.44357,1755.06107 C1555.44357,1752.8697 1556.63054,1751.77403 1559.00453,1751.77403 L1579.82244,1751.77403 L1579.82244,1596.18751 L1559.00453,1596.18751 C1556.63054,1596.18751 1555.44357,1595.09185 1555.44357,1592.90047 L1555.44357,1578.93056 C1555.44357,1576.73919 1556.63054,1575.64352 1559.00453,1575.64352 L1643.37186,1575.64352 C1662.91158,1575.64352 1678.79878,1580.80229 1691.03393,1591.12 C1703.26908,1601.4377 1709.38656,1616.00096 1709.38656,1634.81022 C1709.38656,1663.48065 1695.96462,1681.37657 1669.12034,1688.49853 C1672.59001,1691.23774 1676.88137,1697.35522 1681.99457,1706.85116 L1705.00385,1751.77403 L1721.71296,1751.77403 C1723.90433,1751.77403 1725,1752.8697 1725,1755.06107 L1725,1769.03099 C1725,1771.22236 1723.90433,1772.31802 1721.71296,1772.31802 L1721.71296,1772.31802 Z M1603.65347,1673.70685 L1638.71522,1673.70685 C1669.75964,1673.70685 1685.28161,1661.01536 1685.28161,1635.63198 C1685.28161,1609.33554 1669.75964,1596.18751 1638.71522,1596.18751 L1603.65347,1596.18751 L1603.65347,1673.70685 Z" id="MODELR"></path>
        </g>
    </g>
</svg>
